<svg width="92" height="25" viewBox="0 0 92 25" fill="none" xmlns="http://www.w3.org/2000/svg">
<path fill-rule="evenodd" clip-rule="evenodd" d="M11.0446 20.6014C10.1113 22.2999 7.77794 23.2263 5.44461 23.3807C3.7335 23.5351 2.02239 23.0719 1.08906 21.991C0.466833 21.219 0.155722 19.8294 1.08906 18.5942C2.48906 16.8958 6.22239 16.2782 9.02239 17.5134C9.80017 15.5062 9.80017 13.0357 10.2668 10.7197C7.15572 11.3373 4.04461 11.1829 1.55572 9.48451C0.622388 9.0213 1.40017 6.70527 1.86683 6.08767C4.35572 8.40369 7.46683 9.0213 10.5779 8.7125C11.0446 6.70528 11.9779 4.23485 13.5335 2.53643C15.4002 0.374803 18.2002 0.0659993 19.9113 0.99241C21.1557 1.61002 21.9335 2.84523 21.3113 4.38925C20.5335 6.39647 16.4891 8.5581 13.8446 9.63891C13.2224 13.0357 13.0668 16.7414 11.9779 18.903C18.2002 22.1454 25.8224 22.6087 31.5779 18.903C31.8891 19.2118 32.2002 19.8294 32.3557 20.2926C32.9779 22.1455 31.7335 23.2263 30.1779 23.8439C28.0002 24.6159 25.0446 24.6159 21.9335 24.3071C17.8891 23.6895 13.5335 22.2999 11.0446 20.6014ZM17.5779 10.8741C18.5113 11.6461 19.7557 10.8741 20.0668 10.1021C20.6891 9.0213 20.3779 7.47728 18.2002 8.09489C16.8002 8.5581 16.3335 9.94771 17.5779 10.8741ZM86.8002 10.4109C86.9557 8.7125 88.6668 8.8669 88.8224 10.1021C88.8224 10.5653 88.8224 10.8741 88.3557 11.3373C88.8224 11.8005 89.2891 11.9549 89.7557 11.9549C90.6891 11.9549 91.4668 11.0285 91.3113 9.79331C91.1557 8.40369 90.2224 7.01408 88.2002 7.16848C86.4891 7.16848 85.2446 8.09489 84.9335 9.48451C83.6891 13.1901 86.9557 14.5798 86.1779 17.5134C85.8668 18.5942 85.0891 19.5206 84.1557 20.1382C81.8224 21.5278 78.2446 21.991 75.6002 21.0646C74.8224 22.7631 77.1557 23.3807 79.4891 23.5351C81.978 23.6895 84.9335 23.3807 86.9557 21.8366C87.7335 21.219 88.5113 20.447 88.8224 19.5206C91.0002 15.043 86.6446 13.3445 86.8002 10.4109ZM60.978 7.63169C59.2668 7.63169 56.6224 6.85968 55.8446 5.62446C55.3779 4.85245 55.5335 3.61724 56.1557 2.07322C58.1779 3.15403 60.978 4.08044 64.8668 3.61724C70.1557 2.99963 77.4668 -1.32362 81.8224 4.23485C83.378 6.24207 84.0002 9.48451 83.6891 12.5725C83.2224 15.6606 81.6668 18.7486 78.8668 19.9838C74.6668 21.6822 72.3335 17.8222 72.4891 14.1166C72.4891 12.7269 72.9557 11.1829 73.8891 9.63891C75.4446 7.01408 79.178 6.24207 80.4224 7.78609C80.8891 8.24929 81.2002 9.0213 80.8891 9.94771C80.7335 11.0285 80.1113 11.3373 79.9557 11.0285C79.3335 9.3301 78.0891 9.3301 76.8446 10.2565C75.2891 11.4917 75.2891 13.9622 75.7557 15.815C76.378 17.9766 78.4002 19.0574 80.4224 16.1238C82.4446 13.3445 82.7557 7.78609 79.9557 5.47006C77.6224 3.46284 74.0446 4.08044 70.4668 5.16126C67.3557 6.39647 63.9335 7.78609 60.978 7.63169ZM68.6002 13.1901C68.7557 11.8005 67.5113 11.0285 66.5779 11.0285C65.1779 11.0285 63.6224 12.2637 63.0002 14.8886C62.378 17.5134 62.8446 20.2926 64.5557 20.9102C66.1113 21.3734 67.8224 19.675 68.1335 17.359L68.6002 13.1901ZM68.2891 20.447C67.3557 22.1455 66.1113 23.0719 64.5557 22.9175C62.2224 22.7631 60.978 20.7558 60.5113 18.4398C59.8891 15.3518 60.8224 11.4917 63.0002 9.3301C63.9335 8.40369 65.4891 7.63169 66.8891 7.78609C67.8224 7.94049 68.7557 8.40369 69.2224 9.3301L69.5335 7.47728C70.9335 6.70528 72.8002 7.63169 72.4891 9.0213C72.1779 11.3373 71.7113 13.3445 71.4002 15.6606C71.0891 17.2046 70.778 19.2118 71.7113 20.2926C72.178 20.7558 72.6446 21.0646 73.7335 20.9102C73.7335 22.2999 72.8002 22.9175 71.7113 22.9175C70.1557 23.2263 68.7557 22.4543 68.2891 20.447ZM50.5557 9.3301C50.7113 8.24929 51.3335 7.63169 52.1113 7.47728C53.0446 7.01408 54.2891 7.32288 54.7557 7.47728C54.4446 7.94049 53.5113 12.8813 53.2002 13.9622C53.5113 13.1901 53.978 11.8005 54.7557 10.7197C55.8446 9.1757 57.4002 8.24929 58.4891 8.5581C59.2668 8.7125 59.8891 9.63891 59.7335 11.4917C59.5779 13.0357 58.4891 15.6606 58.3335 17.9766C58.178 20.7558 59.4224 21.3734 60.978 21.0646C61.1335 22.2999 60.5113 23.0719 59.578 23.2263C58.9557 23.3807 58.3335 23.2263 57.7113 22.9175C55.2224 21.3734 56.0002 17.9766 56.6224 15.6606C57.5557 12.2637 56.0002 11.9549 54.9113 13.8078C54.1335 14.4254 53.6668 15.3518 53.3557 16.2782C52.578 18.4398 52.2668 19.9838 51.8002 21.991C51.3335 23.3807 48.8446 23.5351 49.0002 21.991L50.5557 9.3301ZM46.5113 13.0357C45.4224 12.8813 44.6446 11.4917 45.1113 10.2565C45.5779 8.8669 47.2891 8.40369 48.0668 10.1021C49.9335 13.6534 48.2224 19.3662 45.7335 21.991C44.8002 22.9175 43.7113 23.3807 42.6224 23.3807C39.5113 23.3807 37.6446 20.2926 37.4891 16.7414C37.4891 14.4254 37.9557 12.1093 39.2002 10.2565C40.6002 8.09489 43.0891 6.85968 45.2668 7.32288C45.5779 8.5581 44.9557 9.94771 43.8668 10.5653C42.7779 10.8741 41.8446 11.9549 41.3779 13.3446C40.9113 14.5798 40.6002 16.1238 40.7557 17.5134C40.9113 19.5206 41.5335 21.219 42.7779 21.3734C44.3335 21.6822 45.4224 20.447 45.8891 18.903C46.5113 16.8958 46.6668 14.5798 46.5113 13.0357ZM23.0224 6.39647C23.3335 5.16126 25.8224 4.54365 26.7557 5.16126C25.8224 8.40369 25.2002 11.8005 24.8891 12.8813C25.6668 11.1829 26.6002 7.63169 28.9335 7.63169C32.2002 7.63169 30.9557 11.6461 30.4891 13.1901C31.5779 10.8741 32.5113 7.47728 35.0002 7.78609C37.0224 8.09489 36.7113 10.4109 36.2446 12.8813C35.9335 14.8886 35.3113 16.8958 35.4668 18.2854C35.6224 19.3662 35.9335 20.2926 36.4002 20.7558C36.8668 21.219 37.4891 21.3734 38.2668 21.3734C38.5779 22.9175 36.4002 23.6895 34.8446 22.9175C33.7557 22.2999 33.1335 21.0646 33.1335 19.0574C32.9779 15.6606 34.5335 12.4181 33.7557 11.8005C33.2891 11.3373 32.3557 12.1093 31.8891 13.1901C30.6446 15.815 30.6446 17.0502 29.7113 18.5942C29.0891 19.675 26.9113 20.1382 27.0668 18.7486C27.2224 17.5134 27.6891 15.043 28.1557 13.0357C28.4668 11.3373 28.4668 10.5653 27.5335 10.7197C26.4446 11.0285 24.4224 15.6606 23.9557 19.2118C23.8002 20.447 21.0002 21.5278 21.0002 19.8294C21.0002 18.2854 21.3113 16.1238 21.6224 13.6534C22.0891 10.8741 22.7113 8.09489 23.0224 6.39647ZM17.5779 11.8005C18.0446 11.8005 18.6668 11.6461 19.1335 11.8005C18.6668 13.499 18.5113 15.043 18.2002 17.0502C18.0446 18.5942 18.8224 19.5206 19.7557 19.675C20.2224 19.8294 19.7557 20.447 19.4446 20.6014C18.5113 20.9102 17.1113 20.6014 16.1779 19.8294C15.5557 19.2118 15.4002 18.5942 15.4002 17.8222C15.4002 16.587 15.5557 15.1974 15.8668 13.6534C16.1779 12.5725 16.8002 11.9549 17.5779 11.8005ZM8.40017 19.0574C6.22239 17.6678 2.95572 18.7486 2.80017 19.9838C2.64461 21.0646 4.35572 21.6822 5.91128 21.219C6.84461 21.0646 7.9335 20.2926 8.40017 19.0574ZM14.0002 7.94049C16.1779 7.01408 17.7335 5.62446 18.3557 4.38925C19.1335 2.53643 18.0446 1.45562 17.1113 1.76442C15.4002 2.38203 14.3113 5.93327 14.0002 7.94049Z" fill="black"/>
</svg>
